<svg id="Layer_1" data-name="Layer 1" xmlns="http://www.w3.org/2000/svg" viewBox="0 0 72 72" width="72" height="72"><defs><style>.cls-1{fill:none}.cls-2{fill:#f4fbfe}.cls-3{fill:url(#New_Pattern)}</style><pattern id="New_Pattern" data-name="New Pattern" width="72" height="72" patternUnits="userSpaceOnUse" viewBox="0 0 72 72"><path class="cls-1" d="M0 0h72v72H0z"/><path class="cls-2" d="M71.21 27.15l10.32 2.39-2.39 10.31 5.53 1.28 3.67-15.84-15.85-3.68-1.28 5.54zM29.19 8.95l-7.42 7.55-7.55-7.42-3.98 4.05 11.6 11.41 11.4-11.61-4.05-3.98zM-.79 27.15l10.32 2.39-2.39 10.31 5.53 1.28 3.67-15.84L.49 21.61l-1.28 5.54zm45.18 9.14l-7.83-7.13 7.13-7.82-4.21-3.83-10.94 12.04 12.03 10.94 3.82-4.2zM68.98 9.42L58.91 12.7 55.63 2.64l-5.4 1.77 5.05 15.46 15.46-5.05-1.76-5.4zm.09 36.63l-7.23 7.73-7.73-7.23-3.88 4.16 11.88 11.11 11.11-11.89-4.15-3.88zM24.33 69.1L14 71.42 11.67 61.1l-5.54 1.24L9.7 78.22l15.87-3.58-1.24-5.54zm9.07-7.84l1.84-10.43 10.43 1.84.98-5.6-16.02-2.82-2.82 16.02 5.59.99zm17.47-24.27l9.26-5.12 5.13 9.26 4.97-2.75-7.87-14.23-14.24 7.87 2.75 4.97zM20.04 39.2l-4.81 9.43-9.43-4.82-2.59 5.07 14.5 7.39 7.39-14.49-5.06-2.58zM42.9 80.27l.56-10.57 10.57.55.3-5.67-16.25-.85-.85 16.24 5.67.3zM-2.93 46.05l-7.23 7.73-7.73-7.23-3.88 4.16 11.88 11.11L1.22 49.93l-4.15-3.88zM24.33-2.9L14-.58 11.67-10.9 6.13-9.65 9.7 6.22l15.87-3.58-1.24-5.54zM42.9 8.27l.56-10.57 10.57.55.3-5.67-16.25-.85-.85 16.24 5.67.3z"/></pattern></defs><title>background</title><path class="cls-3" d="M0 0h1200v3000H0z"/><path class="cls-3" d="M0 0h72v72H0z"/></svg>