<svg id="Layer_1" xmlns="http://www.w3.org/2000/svg" viewBox="0 0 40 36.1"><style>.st0{fill:#231f20}</style><path class="st0" d="M0 0h40v3H0zM0 6h40v3H0zM0 12h40v3H0zM36.8 26.8v6c0 .6-.1 1-.4 1.2-.2.3-.6.4-1 .4-.9 0-1.4-.5-1.4-1.5v-6.1h-2.2v6.1c0 1 .3 1.8 1 2.4s1.5.9 2.7.9c.7 0 1.4-.1 1.9-.4.5-.3 1-.6 1.3-1.1.3-.5.4-1.1.4-1.8v-6h-2.3zm-7.4 0h-2.2v5.8l-3.3-5.8h-2.2V36h2.2v-5.8l3.3 5.8h2.2v-9.2zm-10.3 3.6h-3.5v-1.9h4.2v-1.7h-6.4V36h6.4v-1.7h-4.1v-2.2h3.5v-1.7zM1 26.8V36h2.2v-2.2L3 29.4 5.3 36h1.5L9 29.4l-.2 4.4V36H11v-9.2H8.1L6 33.2l-2.1-6.4H1z"/></svg>